<svg width="20" height="18" viewBox="0 0 20 18" fill="none" xmlns="http://www.w3.org/2000/svg">
<path d="M11.3606 6.76892C10.845 6.76892 10.4455 7.13827 10.4455 7.59429C10.4455 8.0503 10.845 8.41965 11.3606 8.41965C11.8316 8.41965 12.2311 8.0503 12.2311 7.59429C12.2311 7.13827 11.8316 6.76892 11.3606 6.76892ZM5.11098 6.76892C4.59539 6.76892 4.19586 7.13827 4.19586 7.59429C4.19586 8.0503 4.59539 8.41965 5.11098 8.41965C5.58194 8.41965 5.98147 8.0503 5.98147 7.59429C5.98147 7.13827 5.58194 6.76892 5.11098 6.76892Z" fill="black"/>
<path d="M18.5254 5.20073C17.4518 3.83888 15.9518 2.92891 14.3069 2.51829V2.52035C13.9252 2.1283 13.4944 1.76721 13.0123 1.44531C9.3585 -1.01015 4.22935 -0.261131 1.56211 3.11668C-0.587315 5.86102 -0.495803 9.55248 1.69603 12.1751L1.71388 14.9112C1.71388 14.9772 1.72504 15.0432 1.74736 15.1051C1.86566 15.4538 2.26742 15.6457 2.6424 15.5364L5.46812 14.7131C6.21584 14.9586 6.98811 15.0989 7.75592 15.1381L7.74476 15.1464C9.73348 16.4856 12.3405 16.8879 14.7309 16.1575L17.5678 17.0117C17.6392 17.0324 17.7129 17.0447 17.7888 17.0447C18.1839 17.0447 18.503 16.7497 18.503 16.3844V13.6195C20.4694 11.1516 20.5208 7.7408 18.5254 5.20073ZM5.7806 13.2481L5.51276 13.1449L3.30307 13.7845L3.28075 11.6386L3.10219 11.4529C1.21391 9.32344 1.08892 6.25514 2.85667 4.00395C5.00832 1.27611 9.13307 0.673597 12.0749 2.6421C15.0256 4.62504 15.6795 8.43204 13.548 11.1434C11.7601 13.4111 8.55945 14.2488 5.7806 13.2481ZM17.0522 12.8973L16.8737 13.1036L16.896 15.2496L14.7086 14.5686L14.4408 14.6718C13.1909 15.101 11.8584 15.1361 10.6241 14.8162L10.6196 14.8142C12.269 14.3458 13.7645 13.3966 14.8425 12.0306C16.5478 9.85786 16.8246 7.12796 15.8336 4.80043L15.8469 4.80868C16.3603 5.14915 16.8313 5.57421 17.2308 6.088C18.8512 8.14316 18.7597 10.9412 17.0522 12.8973Z" fill="black"/>
<path d="M8.2358 6.76892C7.72021 6.76892 7.32068 7.13827 7.32068 7.59429C7.32068 8.0503 7.72021 8.41965 8.2358 8.41965C8.70675 8.41965 9.10628 8.0503 9.10628 7.59429C9.10628 7.13827 8.70675 6.76892 8.2358 6.76892Z" fill="black"/>
</svg>
