<svg width="16" height="18" viewBox="0 0 16 18" fill="none" xmlns="http://www.w3.org/2000/svg">
<path d="M12.4444 1.63636H15.1111C15.3469 1.63636 15.573 1.72256 15.7397 1.876C15.9064 2.02944 16 2.23755 16 2.45455V17.1818C16 17.3988 15.9064 17.6069 15.7397 17.7604C15.573 17.9138 15.3469 18 15.1111 18H0.888889C0.653141 18 0.427048 17.9138 0.260349 17.7604C0.0936505 17.6069 0 17.3988 0 17.1818V2.45455C0 2.23755 0.0936505 2.02944 0.260349 1.876C0.427048 1.72256 0.653141 1.63636 0.888889 1.63636H3.55556V0H5.33333V1.63636H10.6667V0H12.4444V1.63636ZM12.4444 3.27273V4.90909H10.6667V3.27273H5.33333V4.90909H3.55556V3.27273H1.77778V16.3636H14.2222V3.27273H12.4444ZM3.55556 6.54545H12.4444V8.18182H3.55556V6.54545ZM3.55556 9.81818H12.4444V11.4545H3.55556V9.81818Z" fill="black"/>
</svg>
