<svg width="18" height="17" viewBox="0 0 18 17" fill="none" xmlns="http://www.w3.org/2000/svg">
<path d="M10.2303 1H2.23071C1.9043 1 1.59127 1.12157 1.36047 1.33795C1.12966 1.55434 1 1.84783 1 2.15385V14.8462C1 15.1522 1.12966 15.4457 1.36047 15.662C1.59127 15.8784 1.9043 16 2.23071 16H13.3071C13.6335 16 13.9465 15.8784 14.1773 15.662C14.4081 15.4457 14.5378 15.1522 14.5378 14.8462V9.65385M1 12.5385H14.5378M4.69213 3.88462H7.15354M4.69213 6.76923H5.92283" stroke="black" stroke-width="2" stroke-linecap="round" stroke-linejoin="round"/>
<path d="M11.4536 9.08386L7.76151 9.70693L8.37686 6.19924L13.5828 1.34155C13.6972 1.2334 13.8333 1.14756 13.9833 1.08898C14.1332 1.0304 14.2941 1.00024 14.4566 1.00024C14.619 1.00024 14.7799 1.0304 14.9299 1.08898C15.0798 1.14756 15.216 1.2334 15.3304 1.34155L16.6349 2.56463C16.7506 2.67173 16.8424 2.7993 16.9051 2.93993C16.9677 3.08056 17 3.23145 17 3.38386C17 3.53627 16.9677 3.68716 16.9051 3.82779C16.8424 3.96842 16.7506 4.09598 16.6349 4.20309L11.4536 9.08386Z" stroke="black" stroke-width="2" stroke-linecap="round" stroke-linejoin="round"/>
</svg>
